<svg xmlns="http://www.w3.org/2000/svg" viewBox="0 0 1024 1024"><rect width="1024" height="1024" fill="#d72c28"/><path d="M1024,480.46V1024H724.19c-.49-.34-1-.68-1.46-1s-1-.73-1.55-1.09l-1.55-1.1-1.53-1.09-1.54-1.09-1.54-1.1c-.51-.36-1-.72-1.54-1.09s-1-.73-1.54-1.1l-1.55-1.09-1.54-1.1-1.54-1.09-1.54-1.1-1.54-1.09-1.54-1.09-1.54-1.1-1.54-1.09-1.55-1.09-1.53-1.1-1.55-1.09-1.53-1.09-1.55-1.1-1.54-1.09-1.54-1.09-1.54-1.1-1.54-1.09-1.55-1.1-1.53-1.09c-.51-.36-1-.72-1.54-1.09l-1.54-1.09-1.55-1.1-1.54-1.09L675,989.07l-1.54-1.1-1.54-1.09-1.54-1.09-1.54-1.1-1.54-1.09-1.55-1.09-1.53-1.1c-.52-.36-1-.72-1.55-1.09l-1.53-1.09-1.55-1.1L658,977c-.53-.36-1-.72-1.55-1.09l-1.55-1.1-1.53-1.09-1.55-1.09-1.53-1.1c-.52-.36-1-.72-1.55-1.09l-1.53-1.09-1.55-1.1-1.54-1.09-1.54-1.09-1.54-1.1-1.54-1.09L638,962.83l-1.54-1.1-1.54-1.09-1.55-1.1-1.53-1.09-1.55-1.1-1.53-1.09-1.55-1.1-1.53-1.09c-.53-.36-1-.72-1.55-1.09l-1.54-1.1L621,950.79l-1.55-1.09-1.53-1.1-1.54-1.09-1.54-1.09-1.55-1.1-1.54-1.09-1.54-1.09-1.54-1.1L607.15,941l-1.54-1.09-1.54-1.1-1.54-1.09L601,936.58l-1.53-1.1c-.51-.36-1-.72-1.55-1.09l-1.53-1.09-1.55-1.1-1.54-1.09L591.74,930l-1.55-1.1-1.53-1.09-1.54-1.09-1.54-1.1c-.52-.36-1-.72-1.55-1.09l-1.54-1.09-1.53-1.1-1.55-1.09-1.54-1.1-1.54-1.09L574.79,918l-1.54-1.09-1.55-1.1-1.53-1.09-1.55-1.09-1.53-1.1c-.51-.36-1-.72-1.55-1.09L564,910.34l-1.55-1.1-1.54-1.09-1.54-1.09-1.54-1.1-1.54-1.09-1.54-1.1c-.52-.36-1-.73-1.54-1.1l-1.54-1.09-1.55-1.09-1.54-1.1-1.54-1.09-1.54-1.09-1.54-1.1L542.43,895l-1.54-1.09-1.55-1.1-1.53-1.09-1.55-1.09-1.54-1.1-1.54-1.09-1.53-1.09-1.55-1.1-1.54-1.09L527,884.09l-1.54-1.1-1.54-1.09-1.55-1.09-1.53-1.1-1.54-1.09-1.55-1.09-1.54-1.1-1.54-1.09-1.54-1.09-1.54-1.1-1.54-1.09L508.53,871l-1.55-1.1-1.53-1.09c-.51-.36-1-.72-1.55-1.09l-1.53-1.1c-.52-.36-1-.72-1.55-1.09l-1.53-1.09-1.55-1.1-1.54-1.09-1.54-1.09-1.54-1.1-1.54-1.09L490,857.85l-1.53-1.1L487,855.66l-1.55-1.09-1.54-1.1-1.54-1.09-1.53-1.09-1.55-1.1-1.54-1.09-1.54-1.1-1.55-1.1-1.53-1.09-1.55-1.1L470,843.62c-.52-.36-1-.72-1.55-1.09l-1.53-1.09-1.55-1.1-1.54-1.09-1.54-1.09-1.54-1.1L459.22,836l-1.54-1.09-1.54-1.1-1.54-1.09-1.55-1.09-1.53-1.1c-.52-.36-1-.72-1.55-1.09l-1.53-1.09-1.55-1.1-1.54-1.09L443.81,825l-1.55-1.1-1.53-1.09-1.55-1.09-1.53-1.1c-.52-.36-1-.72-1.55-1.09l-1.54-1.09-1.54-1.1-1.54-1.09-1.54-1.09-1.55-1.1L426.86,813l-1.54-1.09-1.55-1.1-1.54-1.09-1.54-1.09-1.53-1.1c-.52-.36-1-.72-1.55-1.09l-1.54-1.09-1.54-1.1L413,803.17l-1.54-1.09L409.9,801l-1.53-1.09-1.55-1.09-1.53-1.1c-.52-.36-1-.72-1.55-1.09l-1.54-1.09-1.54-1.1-1.54-1.1-1.54-1.09-1.54-1.1L394.5,790,393,789l-1.54-1.1-1.53-1.09-1.55-1.09-1.53-1.1c-.52-.36-1-.72-1.55-1.09l-1.53-1.09-1.55-1.1-1.54-1.09c-.52-.36-1-.73-1.54-1.1L377.55,778,376,776.92c-.51-.36-1-.72-1.55-1.09l-1.53-1.1c-.52-.36-1-.72-1.55-1.09l-1.54-1.09-1.54-1.1-1.54-1.09-1.54-1.09-1.54-1.1-1.54-1.09L360.6,766a308.63,308.63,0,0,1-35.75-29.62c-42.71-41.17-71.55-90.3-83.23-148.89-5.39-27.06-5.38-54.26-1.57-81.51.67-4.75,3.47-6.92,8.21-6.89,5,0,8.17.58,10,2.38a5.75,5.75,0,0,1,1.53,1.1,5.61,5.61,0,0,1,1.55,1.09,6.19,6.19,0,0,1,1.54,1.09,6,6,0,0,1,1.54,1.1,5.56,5.56,0,0,1,1.54,1.09,6,6,0,0,1,1.54,1.09,5.81,5.81,0,0,1,1.54,1.1,5.42,5.42,0,0,1,1.54,1.09,1509.06,1509.06,0,0,1,3.09,2.19,5.51,5.51,0,0,1,1.53,1.09,6.07,6.07,0,0,1,1.55,1.09,180.89,180.89,0,0,0,3.08,2.19,5.63,5.63,0,0,1,1.53,1.09,5.86,5.86,0,0,1,1.55,1.1,5.61,5.61,0,0,1,1.55,1.09,6.13,6.13,0,0,1,1.53,1.09,5.86,5.86,0,0,1,1.55,1.1,5.66,5.66,0,0,1,1.53,1.09,6.07,6.07,0,0,1,1.55,1.09,5.75,5.75,0,0,1,1.53,1.1,5.61,5.61,0,0,1,1.55,1.09,6.19,6.19,0,0,1,1.54,1.09,438.12,438.12,0,0,0,3.08,2.19,438.12,438.12,0,0,1,3.08,2.19,5.84,5.84,0,0,1,1.54,1.09,1509.06,1509.06,0,0,1,3.09,2.19,5.79,5.79,0,0,1,1.53,1.09,6.61,6.61,0,0,1,1.55,1.09,180.89,180.89,0,0,0,3.08,2.19,6.09,6.09,0,0,1,1.53,1.09,6.35,6.35,0,0,1,1.55,1.1,5.84,5.84,0,0,1,1.54,1.09,6.54,6.54,0,0,1,1.54,1.09,6.35,6.35,0,0,1,1.55,1.1,6,6,0,0,1,1.53,1.09,6.61,6.61,0,0,1,1.55,1.09,6.23,6.23,0,0,1,1.53,1.1,5.86,5.86,0,0,1,1.55,1.1,6.19,6.19,0,0,1,1.54,1.09,5.81,5.81,0,0,1,1.54,1.1,5.56,5.56,0,0,1,1.54,1.09,438.12,438.12,0,0,1,3.08,2.19,5.42,5.42,0,0,1,1.54,1.09,6,6,0,0,1,1.54,1.09,5.86,5.86,0,0,1,1.55,1.1,5.37,5.37,0,0,1,1.53,1.09,6.07,6.07,0,0,1,1.55,1.09,180.89,180.89,0,0,0,3.08,2.19,5.84,5.84,0,0,1,1.54,1.09,6,6,0,0,1,1.54,1.1,5.42,5.42,0,0,1,1.54,1.09,6,6,0,0,1,1.54,1.09,5.86,5.86,0,0,1,1.55,1.1,5.51,5.51,0,0,1,1.53,1.09,6.07,6.07,0,0,1,1.55,1.09,6,6,0,0,1,1.54,1.1,5.71,5.71,0,0,1,1.54,1.09,6.19,6.19,0,0,1,1.54,1.09,5.81,5.81,0,0,1,1.54,1.1,5.71,5.71,0,0,1,1.54,1.09,438.12,438.12,0,0,1,3.08,2.19,5.42,5.42,0,0,1,1.54,1.09,6,6,0,0,1,1.54,1.09,5.86,5.86,0,0,1,1.55,1.1,5.37,5.37,0,0,1,1.53,1.09,6.07,6.07,0,0,1,1.55,1.09,5.65,5.65,0,0,1,1.53,1.1,6.07,6.07,0,0,1,1.55,1.09,6.34,6.34,0,0,1,1.54,1.09,6.49,6.49,0,0,1,1.54,1.1,5.84,5.84,0,0,1,1.54,1.09A6.54,6.54,0,0,1,383,590a6.35,6.35,0,0,1,1.55,1.1,6,6,0,0,1,1.53,1.09,6.61,6.61,0,0,1,1.55,1.09,6.49,6.49,0,0,1,1.54,1.1,6.19,6.19,0,0,1,1.54,1.09,6.75,6.75,0,0,1,1.54,1.09,6.29,6.29,0,0,1,1.54,1.1,6.19,6.19,0,0,1,1.54,1.09,438.12,438.12,0,0,1,3.08,2.19,6.07,6.07,0,0,1,1.55,1.09,6.69,6.69,0,0,1,1.53,1.09,6.35,6.35,0,0,1,1.55,1.1,5.75,5.75,0,0,1,1.53,1.1,6.07,6.07,0,0,1,1.55,1.09,5.45,5.45,0,0,1,1.53,1.1,5.61,5.61,0,0,1,1.55,1.09,438.12,438.12,0,0,1,3.08,2.19,5.42,5.42,0,0,1,1.54,1.09A6,6,0,0,1,415.4,613a5.65,5.65,0,0,1,1.54,1.1,5.42,5.42,0,0,1,1.54,1.09,6.07,6.07,0,0,1,1.55,1.09,6,6,0,0,1,1.54,1.1,5.71,5.71,0,0,1,1.54,1.09,6.19,6.19,0,0,1,1.54,1.09,5.81,5.81,0,0,1,1.54,1.1,5.71,5.71,0,0,1,1.54,1.09,5.84,5.84,0,0,1,1.54,1.09,6,6,0,0,1,1.54,1.1,5.61,5.61,0,0,1,1.55,1.09,6.13,6.13,0,0,1,1.53,1.09,5.86,5.86,0,0,1,1.55,1.1,5.51,5.51,0,0,1,1.53,1.09,6.07,6.07,0,0,1,1.55,1.09,5.45,5.45,0,0,1,1.53,1.1,5.61,5.61,0,0,1,1.55,1.09,438.12,438.12,0,0,1,3.08,2.19,5.42,5.42,0,0,1,1.54,1.09,6,6,0,0,1,1.54,1.09,5.65,5.65,0,0,1,1.54,1.1,5.42,5.42,0,0,1,1.54,1.09,6.07,6.07,0,0,1,1.55,1.09,6.22,6.22,0,0,1,1.54,1.1,6,6,0,0,1,1.54,1.09,6.75,6.75,0,0,1,1.54,1.09,6.29,6.29,0,0,1,1.54,1.1,6.19,6.19,0,0,1,1.54,1.09,6.34,6.34,0,0,1,1.54,1.09,6.49,6.49,0,0,1,1.54,1.1,6.07,6.07,0,0,1,1.55,1.09,6.48,6.48,0,0,1,1.53,1.09,6.35,6.35,0,0,1,1.55,1.1,5.79,5.79,0,0,1,1.53,1.09,6.61,6.61,0,0,1,1.55,1.09,5.88,5.88,0,0,1,1.53,1.1,6.07,6.07,0,0,1,1.55,1.09,438.12,438.12,0,0,1,3.08,2.19,5.84,5.84,0,0,1,1.54,1.09,6.34,6.34,0,0,1,1.54,1.09,6.11,6.11,0,0,1,1.54,1.1,5.65,5.65,0,0,1,1.54,1.1,1509.06,1509.06,0,0,1,3.09,2.19,5.56,5.56,0,0,1,1.54,1.09,6.19,6.19,0,0,1,1.54,1.09,5.65,5.65,0,0,1,1.54,1.1,5.71,5.71,0,0,1,1.54,1.09,5.84,5.84,0,0,1,1.54,1.09,6,6,0,0,1,1.54,1.1,5.61,5.61,0,0,1,1.55,1.09,6.13,6.13,0,0,1,1.53,1.09,5.86,5.86,0,0,1,1.55,1.1,5.37,5.37,0,0,1,1.53,1.09,6.07,6.07,0,0,1,1.55,1.09,5.81,5.81,0,0,1,1.54,1.1,5.71,5.71,0,0,1,1.54,1.09,438.12,438.12,0,0,1,3.08,2.19,5.42,5.42,0,0,1,1.54,1.09,5.84,5.84,0,0,1,1.54,1.09,257.23,257.23,0,0,0,3.09,2.19,6,6,0,0,1,1.53,1.09,5.86,5.86,0,0,1,1.55,1.1,5.56,5.56,0,0,1,1.54,1.09,6.19,6.19,0,0,1,1.54,1.09,5.65,5.65,0,0,1,1.54,1.1,5.71,5.71,0,0,1,1.54,1.09,5.84,5.84,0,0,1,1.54,1.09,6,6,0,0,1,1.54,1.1,5.83,5.83,0,0,1,1.55,1.09,1038,1038,0,0,0,3.08,2.19,5.79,5.79,0,0,1,1.53,1.09,6.61,6.61,0,0,1,1.55,1.09,6.29,6.29,0,0,1,1.54,1.1,6.19,6.19,0,0,1,1.54,1.09,438.12,438.12,0,0,1,3.08,2.19,5.84,5.84,0,0,1,1.54,1.09,6.34,6.34,0,0,1,1.54,1.09,257.23,257.23,0,0,0,3.09,2.19,6.48,6.48,0,0,1,1.53,1.09,6.35,6.35,0,0,1,1.55,1.1,6,6,0,0,1,1.54,1.09,6.75,6.75,0,0,1,1.54,1.09,6.11,6.11,0,0,1,1.54,1.1,6.19,6.19,0,0,1,1.54,1.09,6.35,6.35,0,0,1,1.55,1.1,6.13,6.13,0,0,1,1.53,1.09,5.86,5.86,0,0,1,1.55,1.1,6.13,6.13,0,0,1,1.53,1.09,5.86,5.86,0,0,1,1.55,1.1,5.37,5.37,0,0,1,1.53,1.09,6.07,6.07,0,0,1,1.55,1.09,5.81,5.81,0,0,1,1.54,1.1,5.56,5.56,0,0,1,1.54,1.09,6,6,0,0,1,1.54,1.09,5.81,5.81,0,0,1,1.54,1.1,5.42,5.42,0,0,1,1.54,1.09,5.84,5.84,0,0,1,1.54,1.09,257.23,257.23,0,0,0,3.09,2.19,6,6,0,0,1,1.53,1.09,5.86,5.86,0,0,1,1.55,1.1,5.37,5.37,0,0,1,1.53,1.09,6.07,6.07,0,0,1,1.55,1.09,5.65,5.65,0,0,1,1.54,1.1,5.71,5.71,0,0,1,1.54,1.09,6.07,6.07,0,0,1,1.55,1.09,5.92,5.92,0,0,1,1.53,1.1,5.61,5.61,0,0,1,1.55,1.09,6.13,6.13,0,0,1,1.53,1.09,5.86,5.86,0,0,1,1.55,1.1,5.51,5.51,0,0,1,1.53,1.09,6.07,6.07,0,0,1,1.55,1.09,5.81,5.81,0,0,1,1.54,1.1,5.56,5.56,0,0,1,1.54,1.09,6,6,0,0,1,1.54,1.09,5.81,5.81,0,0,1,1.54,1.1,5.62,5.62,0,0,1,1.54,1.09l0,0c35.92-15.66,64.38-41.86,82.3-75.09l-.4-.35a6.27,6.27,0,0,1-1.55-1.1,5.88,5.88,0,0,1-1.53-1.09,180.89,180.89,0,0,1-3.08-2.19,5.81,5.81,0,0,1-1.55-1.09,6.15,6.15,0,0,1-1.54-1.1,5.77,5.77,0,0,1-1.54-1.09,5.9,5.9,0,0,1-1.54-1.1,5.55,5.55,0,0,1-1.54-1.09,5.9,5.9,0,0,1-1.54-1.1,5.35,5.35,0,0,1-1.54-1.09,5.7,5.7,0,0,1-1.54-1.09,5.79,5.79,0,0,1-1.55-1.1,5.45,5.45,0,0,1-1.53-1.09,5.75,5.75,0,0,1-1.55-1.09,180.89,180.89,0,0,0-3.08-2.19,5.51,5.51,0,0,1-1.53-1.09,441,441,0,0,0-3.1-2.19,5.66,5.66,0,0,1-1.53-1.09,5.79,5.79,0,0,1-1.55-1.1,5.45,5.45,0,0,1-1.53-1.09,180.89,180.89,0,0,1-3.08-2.19,5.39,5.39,0,0,1-1.55-1.09,5.86,5.86,0,0,1-1.54-1.09,438.12,438.12,0,0,0-3.08-2.19,5.55,5.55,0,0,1-1.54-1.09,6,6,0,0,1-1.54-1.1,5.77,5.77,0,0,1-1.54-1.09,6.18,6.18,0,0,1-1.54-1.09,6.27,6.27,0,0,1-1.55-1.1A5.88,5.88,0,0,1,636,636a6.23,6.23,0,0,1-1.55-1.09,6,6,0,0,1-1.53-1.1,5.81,5.81,0,0,1-1.55-1.09,544.68,544.68,0,0,0-4.63-3.28,6.13,6.13,0,0,1-1.53-1.09,6.27,6.27,0,0,1-1.55-1.1,5.88,5.88,0,0,1-1.53-1.09,6.05,6.05,0,0,1-1.55-1.09,6.41,6.41,0,0,1-1.54-1.1,5.93,5.93,0,0,1-1.54-1.09,6.37,6.37,0,0,1-1.54-1.09,438.12,438.12,0,0,0-3.08-2.19,6,6,0,0,1-1.54-1.09,6.22,6.22,0,0,1-1.54-1.1,6,6,0,0,1-1.55-1.09,1038,1038,0,0,0-3.08-2.19,5.88,5.88,0,0,1-1.53-1.09,6,6,0,0,1-1.55-1.1,5.55,5.55,0,0,1-1.53-1.1,5.39,5.39,0,0,1-1.55-1.09,5.7,5.7,0,0,1-1.54-1.09,8,8,0,0,1-3.6-4.23c-3.34-7.61-3.23-9.21,1.42-12.51q2.52-1.78,5-3.6l-.47-.34-1.55-1.1c-.51-.36-1-.72-1.53-1.09l-1.55-1.09-1.54-1.1-1.54-1.1c-.51-.37-1-.72-1.54-1.1L589,580.3c-.51-.36-1-.72-1.55-1.09L586,578.12l-1.55-1.1-1.54-1.09-1.54-1.09-1.54-1.1-1.54-1.09-1.54-1.09-1.54-1.1-1.54-1.09c-.51-.37-1-.72-1.55-1.1l-1.53-1.09c-.51-.36-1-.72-1.55-1.09L567.47,565l-1.55-1.1-1.53-1.09c-.52-.37-1-.72-1.55-1.1l-1.54-1.09-1.54-1.09c-.51-.37-1-.72-1.54-1.1l-1.54-1.09c-.52-.36-1-.72-1.54-1.09s-1-.72-1.54-1.1-1-.72-1.54-1.09L550.51,553c-.51-.37-1-.72-1.54-1.1l-1.54-1.09-1.54-1.09c-.52-.37-1-.72-1.54-1.1l-1.54-1.09-1.54-1.09c-.51-.37-1-.72-1.55-1.09l-1.53-1.1c-.51-.36-1-.72-1.55-1.09s-1-.72-1.53-1.1-1-.72-1.55-1.09L532,539.85c-.51-.37-1-.72-1.54-1.1l-1.54-1.09-1.54-1.09c-.51-.37-1-.72-1.54-1.09l-1.54-1.1c-.52-.36-1-.72-1.55-1.09l-1.54-1.09c-.51-.37-1-.73-1.53-1.1L518.15,530l-1.54-1.1-1.54-1.09-1.54-1.1c-.52-.37-1-.72-1.54-1.1l-1.54-1.09-1.54-1.09c-.51-.37-1-.72-1.55-1.09l-1.53-1.1c-.51-.36-1-.72-1.55-1.09l-1.53-1.09L501.2,518l-1.54-1.09c-.51-.37-1-.72-1.54-1.1l-1.54-1.09L495,513.6c-.51-.37-1-.72-1.54-1.09l-1.54-1.1c-.52-.36-1-.72-1.54-1.09l-1.55-1.09c-.51-.37-1-.73-1.53-1.1L485.79,507c-.51-.37-1-.72-1.53-1.09l-1.55-1.1-1.54-1.09c-.52-.37-1-.72-1.54-1.1l-1.55-1.09-1.53-1.09c-.51-.37-1-.72-1.55-1.09l-1.53-1.1c-.51-.36-1-.72-1.55-1.09s-1-.72-1.53-1.1-1-.72-1.55-1.09l-1.54-1.09c-.51-.37-1-.72-1.54-1.1l-1.54-1.09-1.54-1.09c-.51-.37-1-.72-1.54-1.1l-1.54-1.09c-.52-.36-1-.72-1.54-1.09s-1-.72-1.55-1.1-1-.72-1.53-1.09-1-.72-1.55-1.09-1-.72-1.54-1.1l-1.54-1.09c-3.78-2.69-7.47-5.56-11.05-8.66-22.46-19.41-36.85-43.59-44.41-71.88-6.39-24-5.89-48.32.55-72.11,9.67-35.65,28.68-65.56,57.54-89.11,28.53-23.29,60.86-37.34,97.49-41,41.24-4.08,79.16,6.42,114.52,27.36,4.58,2.71,9,5.58,13.25,8.58l1.54,1.09c.53.36,1,.73,1.54,1.09s1,.74,1.55,1.1,1,.73,1.53,1.09l1.55,1.09c.52.36,1,.73,1.53,1.1l1.55,1.09c.52.36,1,.73,1.53,1.09l1.55,1.1,1.54,1.09,1.54,1.1c.52.36,1,.73,1.54,1.1l1.54,1.09,1.54,1.09c.52.36,1,.73,1.54,1.1s1,.73,1.55,1.09l1.54,1.09c.52.36,1,.73,1.54,1.1l1.54,1.09,1.54,1.09c.52.36,1,.74,1.54,1.1l1.54,1.09c.53.36,1,.73,1.54,1.09l1.55,1.1c.52.36,1,.73,1.53,1.09l1.55,1.09c.52.36,1,.73,1.53,1.1s1,.73,1.55,1.09l1.54,1.09c.52.36,1,.74,1.54,1.1L726,269l1.54,1.09c.52.36,1,.73,1.54,1.1l1.54,1.09,1.55,1.09,1.53,1.1c.53.36,1,.73,1.54,1.09l1.55,1.09c.52.36,1,.74,1.54,1.1l1.54,1.09,1.54,1.09c.52.36,1,.73,1.54,1.1l1.54,1.09c.53.36,1,.73,1.54,1.09l1.55,1.1c.52.36,1,.73,1.53,1.09l1.55,1.09c.52.36,1,.74,1.53,1.1s1,.73,1.55,1.09l1.54,1.09c.52.36,1,.74,1.54,1.1l1.54,1.09,1.54,1.09c.52.36,1,.73,1.54,1.1l1.54,1.09c.53.36,1,.73,1.54,1.09l1.55,1.1,1.54,1.09,1.54,1.09,1.54,1.1,1.54,1.1,1.54,1.09c.52.36,1,.73,1.54,1.1s1,.73,1.55,1.09,1,.73,1.53,1.09l1.55,1.1c.52.36,1,.73,1.53,1.09l1.55,1.09c.52.36,1,.73,1.53,1.1s1,.73,1.55,1.09l1.54,1.09c.52.36,1,.74,1.54,1.1l1.54,1.09,1.54,1.09c.52.36,1,.73,1.54,1.1l1.54,1.09c.53.36,1,.73,1.54,1.09l1.55,1.1c.52.36,1,.73,1.53,1.09l1.55,1.09c.52.36,1,.74,1.54,1.1l1.54,1.09,1.54,1.09c.52.36,1,.73,1.54,1.1s1,.73,1.55,1.09,1,.73,1.53,1.09l1.55,1.1c.52.36,1,.73,1.53,1.09l1.55,1.09c.52.36,1,.74,1.53,1.1s1,.73,1.55,1.09L820,335.7c.52.36,1,.73,1.54,1.1l1.54,1.09,1.54,1.09c.52.36,1,.73,1.54,1.1l1.54,1.09c.53.36,1,.73,1.54,1.09l1.55,1.1c.52.36,1,.73,1.53,1.09l1.55,1.09c.52.36,1,.73,1.53,1.1l1.55,1.09,1.54,1.09c.52.36,1,.73,1.54,1.1s1,.73,1.55,1.09l1.53,1.09,1.55,1.1c.52.36,1,.73,1.53,1.09l1.55,1.09,1.53,1.1,1.55,1.1,1.54,1.09c.52.36,1,.73,1.54,1.1l1.54,1.09L857,362c.52.36,1,.73,1.54,1.1l1.54,1.09c.53.36,1,.73,1.54,1.09l1.55,1.1c.52.36,1,.73,1.53,1.09l1.55,1.09c.52.36,1,.73,1.53,1.1s1,.73,1.55,1.09l1.54,1.09c.52.36,1,.73,1.54,1.1s1,.73,1.55,1.09l1.53,1.09,1.55,1.1,1.53,1.09c.53.36,1,.73,1.55,1.09s1,.74,1.54,1.1l1.54,1.09,1.54,1.09c.52.36,1,.73,1.54,1.1l1.54,1.09,1.54,1.09c.52.36,1,.73,1.54,1.1l1.54,1.09c.53.36,1,.73,1.54,1.09l1.55,1.1c.52.36,1,.73,1.53,1.09l1.55,1.09c.52.36,1,.74,1.54,1.1l1.54,1.09,1.54,1.09c.52.36,1,.73,1.54,1.1s1,.73,1.55,1.09l1.53,1.09,1.55,1.1,1.53,1.09c.53.36,1,.73,1.55,1.09s1,.73,1.54,1.1l1.54,1.09,1.54,1.09c.52.36,1,.74,1.54,1.1l1.54,1.09,1.54,1.09c.53.36,1,.74,1.54,1.1s1,.73,1.55,1.09,1,.73,1.53,1.09l1.55,1.1,1.53,1.1,1.55,1.09c.52.36,1,.74,1.53,1.1s1,.73,1.55,1.09l1.54,1.09c.52.36,1,.74,1.54,1.1l1.55,1.09L940.2,421l1.55,1.1,1.53,1.09c.53.36,1,.73,1.55,1.09s1,.74,1.54,1.1l1.54,1.09,1.54,1.09c.52.36,1,.74,1.54,1.1l1.54,1.09,1.54,1.09c.53.36,1,.73,1.54,1.1s1,.73,1.55,1.09,1,.73,1.53,1.09l1.55,1.1c.52.36,1,.73,1.53,1.09l1.55,1.09c.52.36,1,.73,1.53,1.1s1,.73,1.55,1.09l1.54,1.09c.52.36,1,.73,1.54,1.1l1.54,1.09,1.54,1.09,1.55,1.1,1.53,1.09c.53.36,1,.73,1.55,1.09l1.54,1.1,1.54,1.09,1.54,1.09c.52.36,1,.73,1.54,1.1l1.54,1.09,1.54,1.09c.53.36,1,.74,1.54,1.1s1,.73,1.55,1.09,1,.73,1.53,1.09l1.55,1.1c.52.36,1,.73,1.53,1.09l1.55,1.09c.52.36,1,.73,1.53,1.1s1,.73,1.55,1.09l1.54,1.09c.52.36,1,.74,1.54,1.1l1.54,1.09c.52.36,1,.73,1.54,1.1l1.55,1.09,1.53,1.1c.53.36,1,.73,1.55,1.09l1.54,1.1,1.54,1.09,1.54,1.09c.52.36,1,.74,1.54,1.1l1.54,1.09,1.54,1.09c.53.36,1,.73,1.54,1.1s1,.73,1.55,1.09,1,.73,1.53,1.09Z" transform="translate(0 0)" fill="#c12824"/><path d="M699.46,552.4c-19.15,19.66-40,34.17-63.58,44.46-10.61,4.64-21.83,7.89-32.78,11.74-4.37,1.54-7.32.1-9.21-4.19-3.34-7.59-3.23-9.2,1.42-12.5,22.89-16.18,43.1-35.17,59.29-58.12,17.56-24.88,29.92-52.19,35.65-82.2a150.09,150.09,0,0,0-71.82-158.22c-15.71-9.11-32-16.48-50.19-18.38-39.35-4.11-71.67,9.24-96.05,40.63-10.46,13.47-17.51,28.63-19.75,45.73-2.93,22.27,2,42.51,15.46,60.67,13.69,18.52,31.55,30.76,54.39,33.94,26,3.62,47-6.62,62.54-27.35,11.37-15.12,16-32,10.33-50.79-5.89-19.46-28.42-38.92-50.67-37.58-27.83,1.68-47.93,29.75-38.19,54.23,3.79,9.56,10.71,15.77,19.92,19.92,6.24,2.8,6.64,4.21,4.23,10.41-3.09,8-4.28,8.7-11,6.75-22.24-6.45-39.07-29-39.52-52.23-.87-44.57,43-75.27,81.43-69.7,43.11,6.24,79.08,46.93,75.85,93.29-3.05,43.89-25.7,75.11-65.4,93.6-24.22,11.28-49.81,13.11-75.57,6.56a137.87,137.87,0,0,1-56.92-29.84c-22.46-19.41-36.85-43.59-44.4-71.88-6.4-24-5.9-48.32.54-72.11,9.66-35.65,28.68-65.56,57.54-89.12,28.53-23.28,60.86-37.33,97.48-41,41.25-4.08,79.16,6.42,114.53,27.36,32.84,19.44,57.56,46.33,75.33,80.07a208.5,208.5,0,0,1,21.74,67.6c4,27.46,2.38,54.88-6.07,81.5-3.67,11.54-8.5,22.7-12.49,34.14-.53,1.54.19,4.11,1.25,5.54,14,18.87,25.39,39.19,32.55,61.54,18,56.2,9.45,109.28-21.15,158.93C731,756.58,694.88,784.67,651.2,803.47A266.44,266.44,0,0,1,525.44,825a319.1,319.1,0,0,1-78.56-15.75c-46.05-15.35-87.07-39.19-122-72.9-42.7-41.17-71.55-90.3-83.22-148.89-5.39-27.06-5.38-54.26-1.57-81.51.66-4.75,3.48-6.92,8.21-6.9,9.95.06,12.45,2.14,12,11.95-1.62,34.85,5.91,67.93,20.1,99.41a246.2,246.2,0,0,0,61.54,83.4c33.82,30.12,72.71,50.63,116.38,62.37,25.72,6.92,51.84,10.73,78.45,9.56,85.95-3.78,150-56.21,169-130.84,5.37-21,6.58-42.07,1.25-63.17C705.43,565.42,702.28,559.47,699.46,552.4Z" transform="translate(0 0)" fill="#fff"/></svg>
